PathFileType	4	(X/Y/Z)	G:/My Drive/Project Folder - EPSRC SCI-FES/EPSRC-SCI-FES/Technical/Trial Tests/04122019 - Marker Volunteer01/Rosti Data/New Session 101.trc	
DataRate	CameraRate	NumFrames	NumMarkers	Units	OrigDataRate	OrigDataStartFrame	OrigNumFrames	
100.00	100.00	18	14	mm	100.00	253	337	
Frame#	Time	C7			PX			T8			IJ			SC			AC			AI			TS			AA			GH			LE			ME			US			RS			
		X1	Y1	Z1	X2	Y2	Z2	X3	Y3	Z3	X4	Y4	Z4	X5	Y5	Z5	X6	Y6	Z6	X7	Y7	Z7	X8	Y8	Z8	X9	Y9	Z9	X10	Y10	Z10	X11	Y11	Z11	X12	Y12	Z12	X13	Y13	Z13	X14	Y14	Z14	

253	2.520	681.90070	-14.64880	1538.24109	454.31979	-34.09602	1291.28979	755.05377	-6.84478	1323.21240	520.58801	-36.35587	1433.94080	524.62793	-11.37155	1442.36951	593.38269	132.58423	1486.37732	722.05243	70.52821	1461.79480	752.78760	75.31321	1343.44263	662.83643	183.74464	1442.84290	623.49811	194.89978	1457.63794	550.56042	284.58658	1184.96704	515.38983	202.18365	1148.19397	457.26260	372.04904	936.73291	404.92380	409.20676	984.10669 
254	2.530	682.07581	-14.65345	1538.24597	454.46442	-34.09698	1291.30249	754.74945	-6.84971	1323.22632	520.74182	-36.37860	1433.94165	524.77942	-11.34919	1442.39746	593.55396	132.59943	1486.38782	722.22418	70.54900	1461.78528	752.96021	75.30064	1343.44324	663.00323	183.75572	1442.83362	623.62970	194.89378	1457.61694	550.69049	284.59528	1184.96338	515.66162	202.16003	1148.20410	457.43869	372.06653	936.73804	405.10626	409.22345	984.09521 
255	2.540	682.25067	-14.65887	1538.25964	454.60388	-34.09686	1291.31763	754.44647	-6.86401	1323.24170	520.89960	-36.41606	1433.94153	524.92810	-11.33183	1442.42151	593.71484	132.61711	1486.39783	722.38544	70.56598	1461.77942	753.12018	75.28896	1343.44678	663.17194	183.76318	1442.82605	623.76324	194.89575	1457.60425	550.82343	284.60995	1184.98108	515.92279	202.13806	1148.21509	457.61548	372.08212	936.74200	405.28986	409.24704	984.08923 
256	2.550	682.42010	-14.66263	1538.28076	454.73907	-34.09694	1291.33496	754.56622	-6.87130	1323.24048	521.06067	-36.46349	1433.94080	525.07483	-11.31921	1442.44116	593.86725	132.63503	1486.40845	722.53748	70.57127	1461.78052	753.26770	75.27900	1343.45288	663.33948	183.76453	1442.82605	623.90051	194.90421	1457.60095	550.96063	284.62314	1185.01672	516.16968	202.11868	1148.22717	457.79123	372.09506	936.74487	405.47659	409.27133	984.09198 
257	2.560	682.57745	-14.66194	1538.30457	454.87164	-34.09816	1291.35291	755.12555	-6.86200	1323.22620	521.22296	-36.51469	1433.93958	525.21967	-11.31026	1442.45654	594.01300	132.65150	1486.42017	722.68457	70.56417	1461.78918	753.40424	75.27187	1343.46094	663.50116	183.76253	1442.83472	624.04395	194.91867	1457.60706	551.10144	284.62674	1185.05811	516.39923	202.10268	1148.24036	457.96420	372.10526	936.74677	405.66306	409.29263	984.10345 
258	2.570	682.71753	-14.65451	1538.32483	455.00409	-34.10077	1291.36853	755.71436	-6.84518	1323.22095	521.38318	-36.56309	1433.93835	525.36243	-11.30345	1442.46790	594.15356	132.66563	1486.43250	722.82855	70.55160	1461.80347	753.53192	75.26879	1343.46985	663.65295	183.76254	1442.84912	624.19611	194.93997	1457.62317	551.24622	284.61926	1185.09192	516.60901	202.09062	1148.25476	458.13281	372.11310	936.74780	405.84134	409.31271	984.11841 
259	2.580	682.83923	-14.63970	1538.33606	455.13898	-34.10454	1291.37878	756.06567	-6.83043	1323.23218	521.53802	-36.60336	1433.93689	525.50275	-11.29735	1442.47620	594.28986	132.67705	1486.44446	722.96637	70.54211	1461.81812	753.65369	75.27081	1343.47864	663.79303	183.76746	1442.86462	624.35919	194.96945	1457.64905	551.39557	284.60721	1185.11035	516.79742	202.08282	1148.27014	458.29584	372.11923	936.74817	406.00653	409.33298	984.12750 
260	2.590	682.94641	-14.61948	1538.33582	455.27844	-34.10905	1291.38245	756.21344	-6.82127	1323.25012	521.68573	-36.63275	1433.93530	525.64032	-11.29098	1442.48230	594.42261	132.68576	1486.45459	723.09540	70.54203	1461.82520	753.77240	75.27839	1343.48657	663.92163	183.77734	1442.87830	624.53326	195.00697	1457.68396	551.54736	284.59894	1185.11377	516.96381	202.07933	1148.28613	458.45276	372.12436	936.74829	406.16080	409.34973	984.12439 
261	2.600	683.04651	-14.59908	1538.32544	455.42361	-34.11407	1291.38000	756.29694	-6.81916	1323.26306	521.82568	-36.65093	1433.93335	525.77496	-11.28402	1442.48743	594.55231	132.69231	1486.46252	723.21790	70.54830	1461.82336	753.89087	75.29123	1343.49353	664.04144	183.79030	1442.88977	624.71545	195.04938	1457.72534	551.69794	284.59854	1185.10876	517.10822	202.07997	1148.30212	458.60355	372.12888	936.74866	406.30920	409.35757	984.11230 
262	2.610	683.14789	-14.58545	1538.30933	455.57446	-34.11931	1291.37354	756.39996	-6.82316	1323.26794	521.95862	-36.65903	1433.93127	525.90662	-11.27660	1442.49243	594.67950	132.69743	1486.46912	723.33966	70.55309	1461.82361	754.01123	75.30814	1343.49963	664.15680	183.80307	1442.90112	624.89948	195.09074	1457.76978	551.84442	284.60345	1185.10522	517.23114	202.08456	1148.31763	458.74857	372.13269	936.74963	406.45502	409.35321	984.10144 
263	2.620	683.25653	-14.58380	1538.29272	455.72992	-34.12396	1291.36499	756.53546	-6.82771	1323.27002	522.08575	-36.65862	1433.92969	526.03534	-11.26899	1442.49829	594.80463	132.70193	1486.47571	723.46777	70.54852	1461.84045	754.13464	75.32726	1343.50537	664.27155	183.81316	1442.91602	625.07813	195.12440	1457.81262	551.98749	284.60791	1185.10974	517.33344	202.09302	1148.33203	458.88821	372.13541	936.75146	406.59579	409.33810	984.10107 
264	2.630	683.37506	-14.59522	1538.28003	455.88770	-34.12683	1291.35608	756.69403	-6.82766	1323.27698	522.20831	-36.65106	1433.92944	526.16150	-11.26127	1442.50488	594.92816	132.70644	1486.48364	723.60577	70.53053	1461.87732	754.26172	75.34626	1343.51099	664.38702	183.82103	1442.93652	625.24646	195.14635	1457.85034	552.12976	284.60760	1185.12170	517.41626	202.10532	1148.34497	459.02301	372.13641	936.75397	406.72510	409.31644	984.11334 
265	2.640	683.50336	-14.61688	1538.27417	456.04440	-34.12709	1291.34790	756.86853	-6.82063	1323.29407	522.32733	-36.63723	1433.93079	526.28583	-11.25335	1442.51196	595.05029	132.71141	1486.49329	723.74884	70.50690	1461.92419	754.39215	75.36294	1343.51648	664.50281	183.82924	1442.96033	625.40295	195.15648	1457.88049	552.27264	284.60056	1185.13293	517.48138	202.12138	1148.35583	459.15344	372.13538	936.75665	406.84085	409.29156	984.13208 
266	2.650	683.63959	-14.64392	1538.27466	456.19662	-34.12405	1291.34119	757.04889	-6.80949	1323.31946	522.44373	-36.61774	1433.93396	526.40918	-11.24509	1442.51868	595.17139	132.71692	1486.50403	723.88727	70.49186	1461.96423	754.52551	75.37543	1343.52148	664.61823	183.84006	1442.98145	625.54889	195.15761	1457.90222	552.41516	284.58704	1185.13489	517.53119	202.14099	1148.36462	459.27985	372.13235	936.75903	406.94821	409.27017	984.14734 
267	2.660	683.78094	-14.67161	1538.27954	456.34189	-34.11747	1291.33594	757.21198	-6.80310	1323.34204	522.55847	-36.59346	1433.93884	526.53241	-11.23653	1442.52393	595.29181	132.72266	1486.51477	724.01691	70.49242	1461.98181	754.66101	75.38241	1343.52588	664.73364	183.85411	1442.99365	625.68677	195.15340	1457.91577	552.55444	284.56946	1185.12598	517.56879	202.16360	1148.37122	459.40240	372.12775	936.76050	407.05222	409.25717	984.15259 
268	2.670	683.92468	-14.69687	1538.28662	456.47852	-34.10815	1291.33203	757.33978	-6.80578	1323.35388	522.67242	-36.56590	1433.94507	526.65594	-11.22803	1442.52722	595.41150	132.72801	1486.52441	724.14099	70.50380	1461.97412	754.79791	75.38320	1343.52905	664.85052	183.87016	1442.99561	625.81885	195.14705	1457.92310	552.68671	284.55121	1185.11108	517.59778	202.18837	1148.37561	459.52109	372.12204	936.76086	407.15491	409.25082	984.14941 
269	2.680	684.06842	-14.71840	1538.29468	456.60577	-34.09830	1291.32996	757.45905	-6.81223	1323.35400	522.78632	-36.53736	1433.95215	526.77991	-11.22020	1442.52844	595.53021	132.73256	1486.53223	724.26135	70.51498	1461.95276	754.93555	75.37778	1343.53125	664.97028	183.88402	1442.99133	625.94684	195.14113	1457.92700	552.81006	284.53503	1185.09839	517.62189	202.21400	1148.37781	459.63565	372.11539	936.76019	407.25681	409.24463	984.14508 
270	2.690	684.21027	-14.73575	1538.30359	456.72403	-34.09100	1291.33008	757.59668	-6.81671	1323.34412	522.90082	-36.51051	1433.96021	526.90393	-11.21373	1442.52771	595.64716	132.73616	1486.53845	724.37988	70.51965	1461.93518	755.07324	75.36676	1343.53247	665.09229	183.89064	1442.98645	626.07147	195.13739	1457.93018	552.92560	284.52197	1185.09436	517.64478	202.23894	1148.37830	459.74585	372.10760	936.75842	407.35962	409.23523	984.14679 
